/* XPM */
static char * handle_xpm[] = {
"12 10 3 1",
" 	c None",
".	c #91ACC6",
"+	c #E9F2FA",
"            ",
"            ",
"            ",
"            ",
"..  ..  ..  ",
"+.  +.  +.  ",
"            ",
"            ",
"            ",
"            "};
